Coordinates
version=1
nRows=19
nColumns=24
inDegrees=yes

Units are S.I. units (second, meters, Newtons, ...)
Angles are in degrees.

endheader
time	pelvis_tilt	pelvis_list	pelvis_rotation	pelvis_tx	pelvis_ty	pelvis_tz	hip_flexion_r	hip_adduction_r	hip_rotation_r	knee_angle_r	ankle_angle_r	subtalar_angle_r	mtp_angle_r	hip_flexion_l	hip_adduction_l	hip_rotation_l	knee_angle_l	ankle_angle_l	subtalar_angle_l	mtp_angle_l	lumbar_extension	lumbar_bending	lumbar_rotation
      1.81683333	      3.41959642	      3.95046183	     -5.37252758	      1.36284702	      1.02505246	      0.28283585	     10.75600663	     -2.61731185	      2.70443904	    -60.85059362	      5.38004900	    -18.97340486	      3.28150563	      3.26923510	      8.29301389	      1.31607947	    -11.45916164	      3.30857676	    -16.13312711	      3.64848458	     -3.68871019	     -5.29219298	      6.10338816
      1.82100000	      3.41701296	      3.86805936	     -5.15615130	      1.36734514	      1.02561861	      0.28258635	     11.22703146	     -2.49306738	      2.51000823	    -60.37732053	      5.55275827	    -18.97924765	      3.09553423	      2.79872311	      8.24120527	      1.62327097	    -11.10384936	      3.28532156	    -16.21871123	      3.53906177	     -3.72928834	     -5.21130401	      5.86964353
      1.82516667	      3.39225225	      3.76737032	     -4.93203580	      1.37182397	      1.02611077	      0.28232982	     11.71255121	     -2.35202591	      2.30651261	    -59.87579500	      5.69330752	    -18.96395877	      3.05236404	      2.38237499	      8.15470903	      1.84949421	    -10.81758589	      3.37348498	    -16.12127348	      3.51491719	     -3.75202404	     -5.08566668	      5.81759862
      1.82933333	      3.39436467	      3.67148535	     -4.70620378	      1.37628040	      1.02661426	      0.28206108	     12.15949039	     -2.22472182	      2.10226693	    -59.34425129	      5.80646179	    -18.94754734	      2.93986848	      1.92418097	      8.08246779	      2.16658044	    -10.49796780	      3.44632041	    -16.19390242	      3.44994559	     -3.80182402	     -4.97488744	      5.52356032
      1.83350000	      3.36476930	      3.58404979	     -4.48313955	      1.38073682	      1.02704306	      0.28181972	     12.63981705	     -2.10655351	      1.89949270	    -58.79902689	      5.95792891	    -18.93165965	      2.90105485	      1.51461975	      8.00184186	      2.39139830	    -10.19953269	      3.47369216	    -16.09674649	      3.42873988	     -3.82765443	     -4.86004121	      5.45365223
      1.83766667	      3.35907795	      3.49782399	     -4.25896083	      1.38519277	      1.02748475	      0.28155462	     13.07978593	     -1.99886370	      1.69639184	    -58.21747194	      6.05567423	    -18.90546963	      2.77769464	      1.05693761	      7.93583217	      2.73672124	     -9.86377710	      3.52097025	    -16.22929760	      3.35328919	     -3.87112882	     -4.76038034	      5.12425479
      1.84183333	      3.33724104	      3.41208423	     -4.03133044	      1.38963868	      1.02787754	      0.28130885	     13.53083746	     -1.89353102	      1.49233069	    -57.61450868	      6.16872667	    -18.87059633	      2.66415998	      0.63235174	      7.85629443	      3.01615011	     -9.55254670	      3.55961078	    -16.24797526	      3.28423631	     -3.89501541	     -4.65439269	      4.94373351
      1.84600000	      3.32695662	      3.33409031	     -3.79823134	      1.39403942	      1.02823772	      0.28106892	     13.96750744	     -1.80065356	      1.28645575	    -56.99849067	      6.29736049	    -18.84023455	      2.50495410	      0.20203689	      7.78170112	      3.29844738	     -9.24068118	      3.55112402	    -16.28808095	      3.18857814	     -3.94055605	     -4.56827542	      4.71975755
      1.85016667	      3.28746195	      3.26076957	     -3.56699189	      1.39848615	      1.02852707	      0.28083073	     14.42338272	     -1.71607606	      1.08509176	    -56.36004164	      6.40210281	    -18.79788032	      2.35404371	     -0.19624172	      7.70838377	      3.59007286	     -8.93979709	      3.58831133	    -16.31961948	      3.09683943	     -3.93946774	     -4.47607766	      4.53052568
      1.85433333	      3.27397155	      3.18428178	     -3.33610249	      1.40289532	      1.02882495	      0.28059904	     14.84035683	     -1.63399847	      0.88377741	    -55.69195920	      6.48920423	    -18.74496306	      2.24903400	     -0.61568797	      7.62699671	      3.85317443	     -8.64414880	      3.65478619	    -16.31003810	      3.03128977	     -3.98191060	     -4.38311395	      4.34772285
      1.85850000	      3.22541912	      3.11036889	     -3.11053224	      1.40730024	      1.02903196	      0.28038065	     15.29341746	     -1.55512190	      0.68911283	    -55.01399185	      6.58235865	    -18.69596801	      2.22440747	     -0.97967492	      7.53952615	      4.06904557	     -8.38344738	      3.71539962	    -16.20431104	      3.01778339	     -3.97927590	     -4.27254411	      4.30099218
      1.86266667	      3.22624515	      3.02743494	     -2.87661259	      1.41170867	      1.02931149	      0.28016289	     15.66734286	     -1.47402171	      0.48709951	    -54.28542049	      6.62522819	    -18.65776429	      2.14512375	     -1.41284503	      7.44722368	      4.35780558	     -8.09593226	      3.78168683	    -16.28054715	      2.96929482	     -4.02486672	     -4.18233386	      4.00245582
      1.86683333	      3.18091049	      2.95752463	     -2.63611493	      1.41611434	      1.02948299	      0.27995580	     16.08875643	     -1.40970831	      0.28284456	    -53.55057126	      6.70965634	    -18.58862795	      2.10839506	     -1.77921899	      7.35668067	      4.58900178	     -7.83288158	      3.80625893	    -16.22666451	      2.94724888	     -4.02214261	     -4.09994163	      3.90492243
      1.87100000	      3.17671497	      2.90440712	     -2.40161841	      1.42048739	      1.02967736	      0.27975589	     16.46300007	     -1.36739272	      0.09296009	    -52.80787873	      6.75002426	    -18.56002693	      2.00894773	     -2.21369129	      7.29068488	      4.92957631	     -7.51815963	      3.80250850	    -16.34454224	      2.87865490	     -4.07750710	     -4.03811612	      3.58632759
      1.87516667	      3.11933375	      2.84421000	     -2.18953683	      1.42490916	      1.02975623	      0.27960029	     16.88494025	     -1.31446259	     -0.08135271	    -52.04167385	      6.79973786	    -18.48019477	      1.97793442	     -2.56608850	      7.20377915	      5.11949859	     -7.25680288	      3.87373270	    -16.27668365	      2.85905167	     -4.05546822	     -3.95865123	      3.53400833
      1.87933333	      3.13281521	      2.77960162	     -1.97024184	      1.42931375	      1.02992095	      0.27943638	     17.21330755	     -1.26465255	     -0.26022500	    -51.24359570	      6.81811582	    -18.43166863	      1.91237850	     -3.01717568	      7.11508081	      5.39701127	     -6.94824022	      3.92924310	    -16.31771423	      2.81471549	     -4.12295508	     -3.87786769	      3.28442100
      1.88350000	      3.08512292	      2.73908091	     -1.73614143	      1.43370682	      1.02995295	      0.27927852	     17.60616540	     -1.24475345	     -0.44658983	    -50.44467169	      6.85234185	    -18.36586517	      1.83267387	     -3.38454860	      7.04503020	      5.67511307	     -6.67231823	      3.94132475	    -16.35363177	      2.75666154	     -4.12330963	     -3.83281484	      3.09559628
      1.88766667	      3.04432311	      2.69923162	     -1.54497802	      1.43812303	      1.02995539	      0.27918336	     17.99315707	     -1.21970389	     -0.59695353	    -49.64268927	      6.87528286	    -18.29029034	      1.81640613	     -3.76110002	      6.96949594	      5.84401733	     -6.38907748	      4.01021928	    -16.24416397	      2.74694467	     -4.11715219	     -3.77281984	      3.06058208
      1.89183333	      3.05903612	      2.64223836	     -1.31767163	      1.44252764	      1.03003822	      0.27904616	     18.28104227	     -1.18759796	     -0.77626578	    -48.77446642	      6.86785017	    -18.23776948	      1.75507674	     -4.19717840	      6.87681579	      6.10695374	     -6.11162614	      4.05310893	    -16.30115603	      2.70153572	     -4.18590484	     -3.71180423	      2.80713239
